<?xml version="1.0" standalone="no"?>
<!DOCTYPE svg PUBLIC "-//W3C//DTD SVG 20010904//EN"
 "http://www.w3.org/TR/2001/REC-SVG-20010904/DTD/svg10.dtd">
<svg version="1.0" xmlns="http://www.w3.org/2000/svg"
 width="700.000000pt" height="700.000000pt" viewBox="0 0 700.000000 700.000000"
 preserveAspectRatio="xMidYMid meet">
<metadata>
Created by potrace 1.14, written by Peter Selinger 2001-2017
</metadata>
<g transform="translate(0.000000,700.000000) scale(0.100000,-0.100000)"
fill="#000000" stroke="none">
<path d="M3457 6564 c-1 -1 -59 -4 -129 -8 -70 -3 -163 -11 -205 -17 -43 -6
-87 -12 -98 -14 -11 -1 -36 -5 -55 -9 -19 -3 -46 -8 -60 -10 -86 -14 -358 -88
-425 -115 -11 -5 -58 -23 -105 -41 -481 -184 -942 -524 -1270 -936 -71 -88
-169 -225 -206 -287 -16 -27 -42 -70 -57 -95 -154 -259 -303 -657 -356 -957
-6 -33 -13 -69 -15 -80 -2 -11 -7 -49 -11 -85 -4 -36 -9 -72 -10 -81 -21 -107
-21 -506 0 -669 14 -115 18 -148 21 -175 1 -16 3 -30 4 -30 1 0 8 -27 15 -60
9 -41 10 -64 2 -73 -7 -9 -6 -11 6 -6 13 5 15 0 11 -21 -3 -15 -1 -24 4 -21 5
3 10 -6 11 -19 4 -56 6 -65 11 -65 7 0 9 -10 13 -54 1 -13 5 -22 8 -20 6 3 36
-98 31 -105 -2 -2 2 -8 10 -12 11 -7 10 -11 -2 -19 -13 -8 -13 -10 1 -10 9 0
19 -7 23 -15 3 -8 1 -15 -5 -15 -6 0 -3 -7 5 -16 9 -8 14 -20 11 -25 -4 -5 -1
-9 4 -9 6 0 11 -4 11 -9 0 -5 5 -22 11 -38 6 -15 10 -29 10 -30 0 -2 11 -23
24 -48 14 -25 26 -46 26 -47 0 -17 13 -48 20 -48 5 0 9 -7 9 -16 0 -9 14 -41
31 -70 17 -30 27 -59 23 -65 -4 -8 -3 -9 5 -5 6 4 14 0 18 -11 3 -10 21 -42
40 -71 18 -29 30 -58 27 -64 -4 -6 -3 -8 3 -5 9 6 50 -52 45 -65 -1 -5 2 -8 8
-8 5 0 22 -19 36 -42 15 -24 31 -46 37 -49 5 -4 6 -12 3 -18 -4 -6 -3 -10 2
-9 9 3 62 -54 62 -67 0 -3 7 -13 15 -22 8 -8 12 -19 9 -25 -4 -6 -3 -8 3 -5
10 6 73 -55 73 -70 0 -5 9 -14 20 -21 12 -7 18 -17 15 -23 -4 -5 -2 -8 3 -7
14 4 53 -43 45 -55 -3 -5 -1 -7 4 -4 11 7 73 -47 73 -63 0 -6 3 -9 8 -8 8 3
62 -46 62 -55 0 -4 -8 -4 -17 0 -10 3 -15 3 -12 -1 4 -4 16 -9 29 -11 30 -6
51 -25 43 -39 -3 -6 -3 -8 2 -4 11 10 76 -42 68 -55 -3 -6 -1 -7 5 -3 7 4 12
2 12 -4 0 -6 4 -8 10 -5 5 3 15 -3 22 -15 7 -11 18 -20 24 -20 14 0 46 -35 38
-42 -3 -3 3 -5 13 -5 10 1 17 -3 16 -10 -2 -7 4 -10 12 -7 8 4 15 1 15 -5 0
-6 6 -11 14 -11 8 0 16 -4 18 -8 2 -5 32 -28 68 -52 36 -24 67 -47 68 -52 2
-4 8 -6 13 -2 5 3 9 0 9 -7 0 -7 3 -10 6 -6 4 3 26 -7 50 -23 23 -17 47 -30
52 -30 6 0 12 -3 14 -7 3 -8 134 -75 181 -92 15 -6 27 -18 27 -28 0 -13 3 -14
8 -6 6 10 17 8 47 -7 22 -11 45 -20 53 -20 7 0 11 -4 7 -9 -3 -6 4 -8 15 -6
11 2 20 0 20 -6 0 -5 3 -8 8 -7 13 3 62 -14 58 -21 -2 -3 7 -7 20 -7 39 -3 85
-25 77 -38 -4 -6 0 -5 9 2 11 9 18 10 23 2 3 -6 11 -8 16 -5 5 4 9 1 9 -5 0
-6 4 -9 8 -6 12 7 92 -15 92 -26 0 -5 4 -6 10 -3 5 3 29 0 52 -6 57 -17 56
-16 74 -18 8 0 13 -4 11 -8 -3 -5 18 -9 47 -11 45 -2 91 -8 91 -12 0 -1 16 -3
35 -6 19 -2 49 -6 65 -9 17 -3 63 -8 103 -11 64 -6 71 -9 60 -23 -9 -13 -8
-12 7 1 17 16 19 16 32 0 12 -16 12 -15 6 3 -6 17 -5 18 9 7 10 -8 18 -9 22
-3 4 6 12 8 19 5 7 -2 30 -6 52 -7 22 -1 46 -6 54 -11 10 -6 12 -5 7 2 -4 7
-1 12 8 12 25 0 46 -12 39 -23 -3 -6 -1 -7 6 -3 6 4 9 11 6 15 -2 5 33 9 78 9
45 0 100 3 122 6 23 2 46 -1 54 -7 12 -9 13 -9 7 1 -5 9 3 12 31 13 87 4 99 5
111 12 6 5 12 6 12 4 0 -2 18 -1 40 3 28 5 38 4 33 -4 -4 -6 1 -5 10 3 10 8
20 11 24 8 3 -4 11 -3 17 2 6 5 38 14 70 20 47 9 62 8 68 -1 5 -9 8 -8 8 5 0
12 7 17 18 16 9 -1 31 3 47 10 17 7 44 13 61 14 18 1 29 6 26 11 -3 5 5 7 16
4 12 -4 22 -2 22 3 0 5 3 8 8 7 7 -1 23 4 70 23 13 5 27 7 32 4 5 -3 10 -1 12
3 3 9 145 63 170 65 9 1 14 6 11 11 -4 5 1 7 10 3 10 -3 17 -2 17 4 0 6 5 7
10 4 6 -3 10 -2 10 4 0 5 10 13 23 16 12 4 62 27 111 51 49 25 95 43 103 40 8
-3 11 -2 8 4 -8 13 41 43 56 34 7 -4 9 -3 6 3 -8 13 20 26 35 16 6 -3 8 -1 5
4 -4 6 15 25 41 42 52 33 67 38 56 19 -4 -8 -3 -10 2 -5 5 5 9 13 9 18 0 5 3
9 7 9 4 0 22 14 40 30 18 17 38 28 45 26 7 -3 12 -1 10 3 -4 15 92 83 106 75
6 -4 9 -4 5 1 -11 11 74 86 90 80 7 -3 10 0 7 5 -7 11 54 67 68 62 5 -1 6 2 2
7 -7 12 29 33 39 23 4 -3 4 2 0 13 -6 15 -4 17 9 12 12 -5 17 -1 17 13 0 11 7
20 15 20 8 0 15 6 15 14 0 14 27 31 43 27 5 -1 6 3 3 8 -4 5 18 35 49 66 30
31 55 61 55 66 0 5 7 9 16 9 8 0 13 4 10 8 -3 4 10 25 29 45 19 20 47 54 62
75 15 20 33 42 38 49 6 7 15 18 21 25 5 7 13 22 18 33 6 16 9 17 17 5 9 -13
10 -13 6 0 -6 21 12 52 25 44 7 -4 8 -3 4 4 -4 6 3 26 15 44 47 69 59 87 59
92 0 2 18 34 40 70 22 36 40 72 40 81 0 8 4 15 9 15 5 0 15 16 21 35 7 21 16
32 22 29 7 -4 8 -2 4 4 -4 7 2 29 13 50 17 30 37 75 46 102 1 3 6 16 12 30 6
14 16 42 23 62 8 20 18 34 24 31 5 -4 7 1 2 12 -9 25 24 111 37 93 6 -9 7 -7
3 6 -6 16 12 100 31 146 3 8 5 21 4 28 -1 6 2 12 8 12 5 0 7 9 4 20 -3 11 0
20 6 20 6 0 8 7 4 17 -4 9 -2 14 3 11 5 -4 9 8 8 25 -1 29 9 79 23 117 3 8 7
35 8 60 2 25 6 54 9 66 4 19 12 101 22 218 6 75 6 339 -1 431 -40 587 -250
1149 -605 1620 -178 236 -336 398 -560 573 -58 45 -111 88 -119 94 -38 31
-273 173 -368 221 -252 129 -571 240 -808 282 -70 12 -91 16 -105 20 -8 2 -46
7 -85 11 -38 3 -73 8 -76 10 -8 5 -366 22 -372 18z"/>
<path d="M6370 2381 c0 -6 4 -13 10 -16 6 -3 7 1 4 9 -7 18 -14 21 -14 7z"/>
<path d="M6285 2180 c-3 -6 1 -7 9 -4 18 7 21 14 7 14 -6 0 -13 -4 -16 -10z"/>
<path d="M6250 2119 c0 -5 5 -7 10 -4 6 3 10 8 10 11 0 2 -4 4 -10 4 -5 0 -10
-5 -10 -11z"/>
<path d="M6230 2060 c0 -5 5 -10 11 -10 5 0 7 5 4 10 -3 6 -8 10 -11 10 -2 0
-4 -4 -4 -10z"/>
<path d="M6090 1819 c0 -5 5 -7 10 -4 6 3 10 8 10 11 0 2 -4 4 -10 4 -5 0 -10
-5 -10 -11z"/>
<path d="M935 1740 c3 -5 8 -10 11 -10 2 0 4 5 4 10 0 6 -5 10 -11 10 -5 0 -7
-4 -4 -10z"/>
<path d="M6050 1739 c0 -5 5 -7 10 -4 6 3 10 8 10 11 0 2 -4 4 -10 4 -5 0 -10
-5 -10 -11z"/>
<path d="M6010 1700 c0 -5 5 -10 11 -10 5 0 7 5 4 10 -3 6 -8 10 -11 10 -2 0
-4 -4 -4 -10z"/>
<path d="M1010 1626 c0 -2 7 -7 16 -10 8 -3 12 -2 9 4 -6 10 -25 14 -25 6z"/>
<path d="M1050 1620 c0 -5 5 -10 11 -10 5 0 7 5 4 10 -3 6 -8 10 -11 10 -2 0
-4 -4 -4 -10z"/>
<path d="M5946 1598 c3 -5 10 -6 15 -3 13 9 11 12 -6 12 -8 0 -12 -4 -9 -9z"/>
<path d="M1155 1480 c3 -5 8 -10 11 -10 2 0 4 5 4 10 0 6 -5 10 -11 10 -5 0
-7 -4 -4 -10z"/>
<path d="M1189 1443 c-13 -16 -12 -17 4 -4 9 7 17 15 17 17 0 8 -8 3 -21 -13z"/>
<path d="M5795 1441 c-3 -5 -2 -12 3 -15 5 -3 9 1 9 9 0 17 -3 19 -12 6z"/>
<path d="M1290 1319 c0 -5 5 -7 10 -4 6 3 10 8 10 11 0 2 -4 4 -10 4 -5 0 -10
-5 -10 -11z"/>
<path d="M5615 1220 c3 -5 8 -10 11 -10 2 0 4 5 4 10 0 6 -5 10 -11 10 -5 0
-7 -4 -4 -10z"/>
<path d="M1396 1202 c-3 -5 1 -9 9 -9 8 0 12 4 9 9 -3 4 -7 8 -9 8 -2 0 -6 -4
-9 -8z"/>
<path d="M5551 1167 c-8 -10 -7 -14 2 -14 8 0 14 6 14 14 0 7 -1 13 -2 13 -2
0 -8 -6 -14 -13z"/>
<path d="M5515 1111 c-3 -5 -2 -12 3 -15 5 -3 9 1 9 9 0 17 -3 19 -12 6z"/>
<path d="M1610 1060 c0 -5 5 -10 11 -10 5 0 7 5 4 10 -3 6 -8 10 -11 10 -2 0
-4 -4 -4 -10z"/>
<path d="M1576 1033 c-6 -14 -5 -15 5 -6 7 7 10 15 7 18 -3 3 -9 -2 -12 -12z"/>
<path d="M5355 1041 c-3 -5 -2 -12 3 -15 5 -3 9 1 9 9 0 17 -3 19 -12 6z"/>
<path d="M5390 1039 c0 -5 5 -7 10 -4 6 3 10 8 10 11 0 2 -4 4 -10 4 -5 0 -10
-5 -10 -11z"/>
<path d="M1615 1020 c3 -5 8 -10 11 -10 2 0 4 5 4 10 0 6 -5 10 -11 10 -5 0
-7 -4 -4 -10z"/>
<path d="M5310 1001 c0 -6 4 -12 8 -15 5 -3 9 1 9 9 0 8 -4 15 -9 15 -4 0 -8
-4 -8 -9z"/>
<path d="M5346 1002 c-3 -5 1 -9 9 -9 8 0 12 4 9 9 -3 4 -7 8 -9 8 -2 0 -6 -4
-9 -8z"/>
<path d="M1707 959 c7 -7 15 -10 18 -7 3 3 -2 9 -12 12 -14 6 -15 5 -6 -5z"/>
<path d="M5310 960 c0 -5 5 -10 11 -10 5 0 7 5 4 10 -3 6 -8 10 -11 10 -2 0
-4 -4 -4 -10z"/>
<path d="M5190 886 c0 -2 7 -7 16 -10 8 -3 12 -2 9 4 -6 10 -25 14 -25 6z"/>
<path d="M5160 840 c-9 -6 -10 -10 -3 -10 6 0 15 5 18 10 8 12 4 12 -15 0z"/>
<path d="M1850 819 c0 -5 5 -7 10 -4 6 3 10 8 10 11 0 2 -4 4 -10 4 -5 0 -10
-5 -10 -11z"/>
<path d="M5090 820 c0 -5 5 -10 11 -10 5 0 7 5 4 10 -3 6 -8 10 -11 10 -2 0
-4 -4 -4 -10z"/>
<path d="M5029 803 c-13 -16 -12 -17 4 -4 16 13 21 21 13 21 -2 0 -10 -8 -17
-17z"/>
<path d="M2069 723 c-13 -16 -12 -17 4 -4 16 13 21 21 13 21 -2 0 -10 -8 -17
-17z"/>
<path d="M4949 723 c-13 -16 -12 -17 4 -4 16 13 21 21 13 21 -2 0 -10 -8 -17
-17z"/>
<path d="M2030 719 c0 -5 5 -7 10 -4 6 3 10 8 10 11 0 2 -4 4 -10 4 -5 0 -10
-5 -10 -11z"/>
<path d="M4830 720 c0 -5 5 -10 11 -10 5 0 7 5 4 10 -3 6 -8 10 -11 10 -2 0
-4 -4 -4 -10z"/>
<path d="M4864 722 c4 -3 14 -7 22 -8 9 -1 13 0 10 4 -4 3 -14 7 -22 8 -9 1
-13 0 -10 -4z"/>
<path d="M4875 691 c-3 -5 -2 -12 3 -15 5 -3 9 1 9 9 0 17 -3 19 -12 6z"/>
<path d="M2136 667 c3 -10 9 -15 12 -12 3 3 0 11 -7 18 -10 9 -11 8 -5 -6z"/>
<path d="M4775 660 c3 -5 8 -10 11 -10 2 0 4 5 4 10 0 6 -5 10 -11 10 -5 0 -7
-4 -4 -10z"/>
<path d="M4556 593 c-6 -14 -5 -15 5 -6 7 7 10 15 7 18 -3 3 -9 -2 -12 -12z"/>
<path d="M4650 580 c0 -5 5 -10 11 -10 5 0 7 5 4 10 -3 6 -8 10 -11 10 -2 0
-4 -4 -4 -10z"/>
<path d="M2660 526 c0 -2 8 -10 18 -17 15 -13 16 -12 3 4 -13 16 -21 21 -21
13z"/>
<path d="M2575 500 c3 -5 8 -10 11 -10 2 0 4 5 4 10 0 6 -5 10 -11 10 -5 0 -7
-4 -4 -10z"/>
<path d="M4335 460 c-3 -5 -1 -10 4 -10 6 0 11 5 11 10 0 6 -2 10 -4 10 -3 0
-8 -4 -11 -10z"/>
<path d="M3995 440 c-3 -5 -1 -10 4 -10 6 0 11 5 11 10 0 6 -2 10 -4 10 -3 0
-8 -4 -11 -10z"/>
<path d="M2930 420 c0 -5 5 -10 11 -10 5 0 7 5 4 10 -3 6 -8 10 -11 10 -2 0
-4 -4 -4 -10z"/>
<path d="M3610 420 c0 -5 5 -10 11 -10 5 0 7 5 4 10 -3 6 -8 10 -11 10 -2 0
-4 -4 -4 -10z"/>
<path d="M4165 420 c-3 -6 1 -7 9 -4 18 7 21 14 7 14 -6 0 -13 -4 -16 -10z"/>
<path d="M2995 411 c-3 -5 -2 -12 3 -15 5 -3 9 1 9 9 0 17 -3 19 -12 6z"/>
<path d="M3990 402 c0 -5 7 -9 15 -9 8 0 12 4 9 9 -3 4 -9 8 -15 8 -5 0 -9 -4
-9 -8z"/>
<path d="M3135 380 c-3 -5 -1 -10 4 -10 6 0 11 5 11 10 0 6 -2 10 -4 10 -3 0
-8 -4 -11 -10z"/>
<path d="M3850 379 c0 -5 5 -7 10 -4 6 3 10 8 10 11 0 2 -4 4 -10 4 -5 0 -10
-5 -10 -11z"/>
<path d="M3456 362 c-3 -5 1 -9 9 -9 8 0 12 4 9 9 -3 4 -7 8 -9 8 -2 0 -6 -4
-9 -8z"/>
</g>
</svg>
